<svg width="35" height="35" viewBox="0 0 35 35" fill="none" xmlns="http://www.w3.org/2000/svg">
<path d="M17.8564 11.1943C16.4377 11.1943 14.2417 9.75719 11.929 9.80913C8.87783 9.84376 6.07931 11.3848 4.50514 13.8262C1.33737 18.7264 3.68891 25.9642 6.77894 29.9466C8.29481 31.8859 10.0827 34.0677 12.4537 33.9984C14.7275 33.9118 15.5826 32.6824 18.3423 32.6824C21.0825 32.6824 21.8599 33.9984 24.2697 33.9464C26.7184 33.9118 28.2731 31.9725 29.7696 30.0159C31.4992 27.7649 32.2183 25.5832 32.2571 25.462C32.1988 25.4447 27.4958 23.8344 27.4375 18.9862C27.3986 14.9344 31.1494 12.9951 31.3243 12.9085C29.1865 10.1208 25.9022 9.80913 24.7556 9.73987C21.7627 9.53209 19.2557 11.1943 17.8564 11.1943ZM22.9093 7.10797C24.1725 5.75739 25.0082 3.87004 24.775 2C22.9676 2.06926 20.791 3.07354 19.4889 4.42412C18.3228 5.61887 17.3123 7.54085 17.5843 9.37625C19.5861 9.51477 21.6461 8.45855 22.9093 7.10797Z" fill="#111110"/>
</svg>
