<svg width="16" height="20" viewBox="0 0 16 20" fill="none" xmlns="http://www.w3.org/2000/svg">
<path d="M6.13397 8.53389L7.74347 7.05789C8.18393 6.65381 8.49364 6.12737 8.63288 5.54609C8.77212 4.9648 8.73454 4.35517 8.52497 3.79539L7.83722 1.95939C7.58055 1.27435 7.07231 0.712964 6.41608 0.389658C5.75985 0.0663523 5.00504 0.00545837 4.30547 0.219387C1.73147 1.00689 -0.247032 3.39939 0.361968 6.24114C0.762468 8.11014 1.52822 10.4561 2.98097 12.9529C4.19827 15.0557 5.72969 16.9601 7.52222 18.6004C9.67472 20.5594 12.7497 20.0696 14.7282 18.2254C15.2586 17.7309 15.5804 17.0528 15.628 16.3292C15.6757 15.6057 15.4456 14.8912 14.9847 14.3314L13.724 12.7999C13.344 12.3381 12.8347 12.0003 12.2613 11.8301C11.688 11.6598 11.0769 11.6648 10.5065 11.8444L8.42447 12.5006C8.34422 12.4181 8.25197 12.3199 8.14997 12.2066C7.72193 11.7331 7.34322 11.2172 7.01972 10.6669C6.705 10.1115 6.44767 9.52545 6.25172 8.91789C6.20983 8.79071 6.17057 8.66268 6.13397 8.53389Z" fill="#111110"/>
</svg>
