<svg width="14" height="20" viewBox="0 0 14 20" fill="none" xmlns="http://www.w3.org/2000/svg">
<path d="M11.25 0H2.75C1.23 0 0 1.23 0 2.75V18.24C0 18.94 0.399993 19.56 1.03999 19.84C1.67999 20.12 2.4 20.01 2.92 19.54C3.4 19.11 3.88 18.67 4.37 18.22C5.19 17.46 6.02 16.71 6.84 16C6.93 15.92 7.05999 15.92 7.14999 16C7.96999 16.71 8.79 17.46 9.61 18.21C10.1 18.66 10.59 19.11 11.09 19.55C11.42 19.84 11.83 20 12.25 20C12.49 20 12.74 19.95 12.97 19.84C13.61 19.55 14.01 18.94 14.01 18.24V2.74001C14 1.23001 12.77 0 11.25 0Z" fill="#111110"/>
</svg>
