<svg width="24" height="24" viewBox="0 0 24 24" fill="none" xmlns="http://www.w3.org/2000/svg">
<path d="M16.09 21.55L16.7506 20.7993C16.2599 20.3675 15.7777 19.9247 15.2864 19.4735L15.2849 19.4721L15.2797 19.4673C14.4639 18.7212 13.6363 17.9642 12.8067 17.2459C12.3401 16.8378 11.6486 16.838 11.1823 17.2467C10.3532 17.9647 9.51611 18.7211 8.69173 19.4852C8.20224 19.9347 7.727 20.3703 7.25274 20.7952L7.24946 20.7981C7.02693 20.9993 6.72758 21.0493 6.44081 20.9238C6.17028 20.8055 6 20.5487 6 20.24V4.75C6 3.78228 6.78228 3 7.75 3H16.25C17.2178 3 18.002 3.78321 18.01 4.74368V20.24C18.01 20.5398 17.8467 20.798 17.5573 20.9291L17.5479 20.9334L17.5385 20.9379C17.4551 20.9778 17.3544 21 17.25 21C17.0871 21 16.9086 20.9381 16.7501 20.7988L16.09 21.55ZM16.09 21.55C16.42 21.84 16.83 22 17.25 22C17.49 22 17.74 21.95 17.97 21.84L11.84 18C11.93 17.92 12.06 17.92 12.15 18C12.97 18.71 13.79 19.46 14.6099 20.2099L14.61 20.21C15.1 20.66 15.59 21.11 16.09 21.55Z" stroke="#111110" stroke-width="2"/>
</svg>
