<svg width="20" height="20" viewBox="0 0 20 20" fill="none" xmlns="http://www.w3.org/2000/svg">
<path fill-rule="evenodd" clip-rule="evenodd" d="M6.875 10.834C6.875 10.0052 7.20424 9.21033 7.79029 8.62428C8.37634 8.03822 9.1712 7.70898 10 7.70898C10.8288 7.70898 11.6237 8.03822 12.2097 8.62428C12.7958 9.21033 13.125 10.0052 13.125 10.834C13.125 11.6628 12.7958 12.4576 12.2097 13.0437C11.6237 13.6297 10.8288 13.959 10 13.959C9.1712 13.959 8.37634 13.6297 7.79029 13.0437C7.20424 12.4576 6.875 11.6628 6.875 10.834ZM10 8.95898C9.50272 8.95898 9.02581 9.15653 8.67417 9.50816C8.32254 9.85979 8.125 10.3367 8.125 10.834C8.125 11.3313 8.32254 11.8082 8.67417 12.1598C9.02581 12.5114 9.50272 12.709 10 12.709C10.4973 12.709 10.9742 12.5114 11.3258 12.1598C11.6775 11.8082 11.875 11.3313 11.875 10.834C11.875 10.3367 11.6775 9.85979 11.3258 9.50816C10.9742 9.15653 10.4973 8.95898 10 8.95898Z" fill="#111110"/>
<path fill-rule="evenodd" clip-rule="evenodd" d="M8.84708 4.79199C8.42892 4.79199 8.02789 4.9581 7.73221 5.25379C7.43652 5.54947 7.27041 5.9505 7.27041 6.36866C7.27027 6.63631 7.16951 6.89413 6.98812 7.09095C6.80674 7.28777 6.55799 7.4092 6.29124 7.43116L4.43291 7.58116C4.2552 7.59547 4.08712 7.66784 3.9546 7.78711C3.82208 7.90638 3.73247 8.06593 3.69958 8.24116C3.32593 10.2161 3.2983 12.2409 3.61791 14.2253L3.69874 14.7287C3.77541 15.2037 4.16624 15.5662 4.64624 15.6053L6.26541 15.737C8.75133 15.9387 11.2495 15.9387 13.7354 15.737L15.3537 15.6053C15.5871 15.5865 15.8074 15.4898 15.9794 15.3309C16.1513 15.1719 16.265 14.9599 16.3021 14.7287L16.3829 14.2253C16.7022 12.2409 16.6743 10.216 16.3004 8.24116C16.2674 8.06608 16.1777 7.90672 16.0452 7.78761C15.9127 7.66851 15.7447 7.59626 15.5671 7.58199L13.7096 7.43116C13.4427 7.40958 13.1937 7.28825 13.0123 7.09135C12.8308 6.89445 12.7302 6.63642 12.7304 6.36866C12.7304 6.16161 12.6896 5.95658 12.6104 5.76529C12.5312 5.574 12.415 5.40019 12.2686 5.25379C12.1222 5.10738 11.9484 4.99124 11.7571 4.91201C11.5658 4.83277 11.3608 4.79199 11.1537 4.79199H8.84708ZM6.02541 6.19866C6.06893 5.47976 6.38513 4.80457 6.9095 4.31086C7.43387 3.81716 8.12687 3.54216 8.84708 3.54199H11.1537C12.6579 3.54199 13.8871 4.71699 13.9754 6.19866L15.6687 6.33616C16.1192 6.37252 16.5453 6.55591 16.8814 6.8581C17.2174 7.1603 17.4449 7.56455 17.5287 8.00866C17.9296 10.1253 17.9596 12.2962 17.6171 14.4237L17.5362 14.9278C17.4546 15.435 17.2052 15.9001 16.8279 16.2488C16.4507 16.5975 15.9674 16.8096 15.4554 16.8512L13.8371 16.9828C11.2835 17.1902 8.71732 17.1902 6.16374 16.9828L4.54541 16.8512C4.0334 16.8096 3.55011 16.5975 3.17288 16.2488C2.79564 15.9001 2.54624 15.435 2.46458 14.9278L2.38374 14.4237C2.04138 12.2964 2.07127 10.1257 2.47208 8.00866C2.55606 7.56461 2.78355 7.16043 3.1196 6.85826C3.45564 6.55609 3.88163 6.37266 4.33208 6.33616L6.02541 6.19866Z" fill="#111110"/>
</svg>
