<svg xmlns="http://www.w3.org/2000/svg" width="38" height="38" viewBox="0 0 38 38" fill="none">
  <path d="M15.0425 4.75C13.0447 4.74942 11.0791 5.25287 9.32756 6.21374C7.57601 7.17462 6.0952 8.56187 5.02221 10.2471C3.94921 11.9322 3.31872 13.8609 3.18909 15.8545C3.05946 17.8481 3.43489 19.8421 4.28062 21.6521C3.88211 23.3016 3.52259 24.9604 3.20237 26.6269C3.15364 26.8783 3.16687 27.1378 3.24091 27.383C3.31495 27.6281 3.44757 27.8515 3.62732 28.0339C3.80707 28.2163 4.02853 28.3522 4.27257 28.4298C4.5166 28.5074 4.77587 28.5245 5.02796 28.4794C6.01437 28.3053 8.15979 27.9094 10.1516 27.4503C11.7661 28.1783 13.5229 28.536 15.2934 28.4971C17.064 28.4583 18.8035 28.024 20.3844 27.2259C21.9654 26.4279 23.3479 25.2863 24.4306 23.8848C25.5133 22.4833 26.2688 20.8574 26.6418 19.1261C27.0148 17.3949 26.9959 15.6021 26.5863 13.8791C26.1768 12.1561 25.3871 10.5466 24.2751 9.16826C23.163 7.78997 21.7567 6.67786 20.1593 5.91337C18.5618 5.14889 16.8135 4.7514 15.0425 4.75ZM14.9824 30.0833C17.1762 32.123 20.0619 33.2546 23.0574 33.25C24.7433 33.2521 26.4102 32.8942 27.9467 32.2003C29.5981 32.5866 31.4079 32.9729 32.559 33.2136C32.883 33.2816 33.219 33.2668 33.5358 33.1706C33.8527 33.0744 34.1402 32.8998 34.3717 32.6631C34.6032 32.4264 34.7713 32.1351 34.8605 31.8162C34.9496 31.4973 34.9569 31.1611 34.8817 30.8386C34.6252 29.7255 34.2199 27.9965 33.8193 26.4005C34.523 24.8931 34.9023 23.2547 34.9326 21.5914C34.9628 19.9281 34.6434 18.277 33.9951 16.745C33.3467 15.213 32.3837 13.8342 31.1686 12.698C29.9535 11.5618 28.5133 10.6934 26.9413 10.1492C27.5031 11.1702 27.9289 12.2603 28.208 13.3918C29.543 14.2524 30.6407 15.4341 31.4006 16.8288C32.1604 18.2236 32.5582 19.7867 32.5574 21.375C32.5602 22.8883 32.1991 24.38 31.5045 25.7244L31.2986 26.125L31.4095 26.562C31.7705 27.9791 32.1489 29.5703 32.426 30.7578C30.9759 30.4541 29.5296 30.1321 28.0876 29.792L27.6696 29.6938L27.2849 29.8854C26.0119 30.5188 24.5774 30.875 23.0574 30.875C21.4392 30.878 19.8474 30.4659 18.434 29.678C17.3058 29.9614 16.1456 30.0977 14.9824 30.0833Z" fill="white"/>
</svg>