<svg width="32" height="30" viewBox="0 0 32 30" fill="none" xmlns="http://www.w3.org/2000/svg">
<path d="M12.0416 0.750001C10.0438 0.749416 8.07812 1.25287 6.32658 2.21374C4.57504 3.17462 3.09423 4.56187 2.02123 6.24705C0.948236 7.93224 0.31774 9.8609 0.188113 11.8545C0.0584847 13.8481 0.433915 15.8421 1.27965 17.6521C0.881129 19.3016 0.521612 20.9604 0.201398 22.6269C0.152668 22.8783 0.165894 23.1378 0.239933 23.383C0.313972 23.6281 0.446597 23.8515 0.626344 24.0339C0.806092 24.2163 1.02755 24.3522 1.27159 24.4298C1.51562 24.5074 1.77489 24.5245 2.02698 24.4794C3.0134 24.3053 5.15881 23.9094 7.15065 23.4503C8.76508 24.1783 10.5219 24.536 12.2925 24.4971C14.063 24.4583 15.8025 24.024 17.3835 23.2259C18.9644 22.4279 20.3469 21.2863 21.4296 19.8848C22.5123 18.4833 23.2678 16.8574 23.6408 15.1261C24.0138 13.3949 23.9949 11.6021 23.5854 9.87913C23.1759 8.15614 22.3862 6.54656 21.2741 5.16826C20.162 3.78997 18.7558 2.67786 17.1583 1.91337C15.5608 1.14889 13.8125 0.751398 12.0416 0.750001ZM11.9814 26.0833C14.1752 28.123 17.0609 29.2546 20.0564 29.25C21.7423 29.2521 23.4092 28.8942 24.9457 28.2003C26.5971 28.5866 28.4069 28.9729 29.558 29.2136C29.882 29.2816 30.218 29.2668 30.5349 29.1706C30.8517 29.0744 31.1392 28.8998 31.3707 28.6631C31.6022 28.4264 31.7703 28.1351 31.8595 27.8162C31.9486 27.4973 31.9559 27.1611 31.8807 26.8386C31.6242 25.7255 31.2189 23.9965 30.8183 22.4005C31.522 20.8931 31.9013 19.2547 31.9316 17.5914C31.9619 15.9281 31.6425 14.277 30.9941 12.745C30.3457 11.213 29.3828 9.8342 28.1677 8.69798C26.9525 7.56176 25.5123 6.69341 23.9403 6.14917C24.5021 7.1702 24.928 8.26034 25.207 9.39183C26.542 10.2524 27.6397 11.4341 28.3996 12.8288C29.1595 14.2236 29.5572 15.7867 29.5564 17.375C29.5592 18.8883 29.1981 20.38 28.5035 21.7244L28.2976 22.125L28.4085 22.562C28.7695 23.9791 29.1479 25.5703 29.425 26.7578C27.9749 26.4541 26.5287 26.1321 25.0866 25.792L24.6686 25.6938L24.2839 25.8854C23.0109 26.5188 21.5764 26.875 20.0564 26.875C18.4383 26.878 16.8464 26.4659 15.4331 25.678C14.3048 25.9614 13.1446 26.0977 11.9814 26.0833Z" fill="#111110"/>
</svg>
