<svg xmlns="http://www.w3.org/2000/svg" width="44" height="44" viewBox="0 0 44 44" fill="none">
  <g clip-path="url(#clip0_401_9430)">
    <path d="M22.0009 0.880859C10.3365 0.880859 0.880859 10.3365 0.880859 22.0009C0.880859 33.6653 10.3365 43.1209 22.0009 43.1209C33.6653 43.1209 43.1209 33.6653 43.1209 22.0009C43.1209 10.3365 33.6653 0.880859 22.0009 0.880859ZM30.5919 18.1817C30.6007 18.3621 30.6029 18.5425 30.6029 18.7185C30.6029 24.2185 26.4207 30.5567 18.7691 30.5567C16.5081 30.5604 14.2942 29.9111 12.3935 28.6867C12.7169 28.7263 13.0491 28.7417 13.3857 28.7417C15.3349 28.7417 17.1279 28.0795 18.5513 26.9619C17.6838 26.9448 16.8433 26.6576 16.1469 26.1402C15.4505 25.6228 14.9328 24.901 14.6661 24.0755C15.289 24.1939 15.9307 24.1691 16.5427 24.0029C15.6012 23.8125 14.7545 23.3023 14.1462 22.5589C13.5379 21.8155 13.2055 20.8846 13.2053 19.9241V19.8735C13.7663 20.1837 14.4087 20.3729 15.0907 20.3949C14.208 19.8073 13.5832 18.9047 13.344 17.8718C13.1047 16.8388 13.2692 15.7534 13.8037 14.8377C14.8486 16.1225 16.1516 17.1735 17.6285 17.9227C19.1054 18.672 20.7232 19.1027 22.3771 19.1871C22.1668 18.2945 22.2573 17.3576 22.6345 16.5218C23.0117 15.686 23.6544 14.9982 24.4628 14.5654C25.2712 14.1326 26.1999 13.9791 27.1046 14.1285C28.0093 14.278 28.8393 14.7222 29.4655 15.3921C30.3964 15.2079 31.2892 14.8664 32.1055 14.3823C31.7952 15.3462 31.1455 16.1646 30.2773 16.6857C31.1019 16.5863 31.9072 16.3646 32.6665 16.0279C32.1087 16.8636 31.4062 17.593 30.5919 18.1817Z" fill="#111110"/>
  </g>
  <defs>
    <clipPath id="clip0_401_9430">
      <rect width="44" height="44" fill="white"/>
    </clipPath>
  </defs>
</svg>