<svg xmlns="http://www.w3.org/2000/svg" width="24" height="24" viewBox="0 0 24 24" fill="none">
  <path d="M20.0039 13.0029V20.0029C20.0039 20.5552 19.5562 21.0029 19.0039 21.0029H5.00391C4.45163 21.0029 4.00391 20.5552 4.00391 20.0029V13.0029H20.0039ZM14.5039 2.00293C16.4369 2.00293 18.0039 3.56993 18.0039 5.50293C18.0039 6.04014 17.8829 6.54908 17.6666 7.00397L21.0039 7.00293C21.5562 7.00293 22.0039 7.45064 22.0039 8.00293V11.0029C22.0039 11.5552 21.5562 12.0029 21.0039 12.0029H3.00391C2.45163 12.0029 2.00391 11.5552 2.00391 11.0029V8.00293C2.00391 7.45064 2.45163 7.00293 3.00391 7.00293L6.34122 7.00397C6.12494 6.54908 6.00391 6.04014 6.00391 5.50293C6.00391 3.56993 7.57092 2.00293 9.50391 2.00293C10.4839 2.00293 11.3698 2.40569 12.0051 3.05471C12.638 2.40569 13.5239 2.00293 14.5039 2.00293ZM9.50391 4.00293C8.67549 4.00293 8.00391 4.6745 8.00391 5.50293C8.00391 6.28263 8.5988 6.92338 9.35945 6.99606L9.50391 7.00293H11.0039V5.50293C11.0039 4.72323 10.409 4.08248 9.64837 4.0098L9.50391 4.00293ZM14.5039 4.00293L14.3594 4.0098C13.6463 4.07794 13.0789 4.64536 13.0107 5.35847L13.0039 5.50293V7.00293H14.5039L14.6483 6.99606C15.409 6.92338 16.0039 6.28263 16.0039 5.50293C16.0039 4.72323 15.409 4.08248 14.6483 4.0098L14.5039 4.00293Z" fill="#F3CC5C"/>
</svg>