<svg xmlns="http://www.w3.org/2000/svg" width="24" height="23" viewBox="0 0 24 23" fill="none">
  <g clip-path="url(#clip0_1329_21853)">
    <path d="M23.3353 12.5799C22.8381 12.3939 22.3844 12.108 22.0019 11.7399C21.128 10.7687 20.3902 9.68321 19.8086 8.51326L22.0686 4.98659C22.123 4.90606 22.157 4.81352 22.1678 4.71692C22.1785 4.62033 22.1656 4.52257 22.1302 4.43206C22.0948 4.34156 22.0379 4.26101 21.9645 4.19735C21.891 4.13368 21.8032 4.08881 21.7086 4.06659C20.5462 3.91258 19.3637 4.07854 18.2886 4.54659C17.5281 4.88004 16.8241 5.32987 16.2019 5.87993C15.0086 5.2934 13.7231 4.91678 12.4019 4.76659C7.8686 4.34659 3.51527 7.26659 3.0286 11.3333L2.93527 11.2866C2.70191 11.1836 2.4925 11.0332 2.32035 10.845C2.1482 10.6568 2.01707 10.4349 1.93527 10.1933C1.88199 10.0231 1.86339 9.84395 1.88057 9.66646C1.89774 9.48897 1.95035 9.31673 2.03527 9.15993C2.11037 9.02802 2.21831 8.91779 2.3486 8.83993C2.42958 8.7909 2.50012 8.7264 2.55617 8.65012C2.61223 8.57383 2.65271 8.48725 2.6753 8.39532C2.6979 8.30339 2.70217 8.20791 2.68786 8.11433C2.67356 8.02075 2.64096 7.93091 2.59193 7.84993C2.54291 7.76894 2.47841 7.69841 2.40213 7.64236C2.32584 7.5863 2.23926 7.54582 2.14733 7.52322C2.0554 7.50063 1.95992 7.49636 1.86634 7.51067C1.77276 7.52497 1.68292 7.55757 1.60193 7.60659C1.26139 7.8091 0.978928 8.09616 0.781934 8.43993C0.60187 8.76666 0.489576 9.12636 0.451774 9.4975C0.413973 9.86865 0.45144 10.2436 0.561935 10.5999C0.696713 11.0322 0.918142 11.4324 1.21271 11.7763C1.50728 12.1202 1.86882 12.4004 2.27527 12.5999L2.94193 12.9599C3.0485 14.6563 3.50232 16.3128 4.27527 17.8266C4.80812 18.9692 5.47985 20.0418 6.27527 21.0199C6.33874 21.1003 6.41987 21.1649 6.51236 21.2089C6.60485 21.2528 6.70622 21.2748 6.8086 21.2733H9.21527C9.27038 21.2664 9.32304 21.2464 9.3688 21.2149C9.41457 21.1834 9.4521 21.1414 9.47823 21.0924C9.50437 21.0434 9.51835 20.9888 9.519 20.9333C9.51964 20.8777 9.50693 20.8229 9.48194 20.7733L9.33527 20.2533C9.24738 19.9953 9.17393 19.7327 9.11527 19.4666C9.72194 19.5733 10.5019 19.6733 11.0286 19.7199C11.7209 19.7739 12.4163 19.7739 13.1086 19.7199C13.3686 20.1866 13.6353 20.6066 13.8753 20.9533C13.932 21.0373 14.0084 21.1062 14.0979 21.1539C14.1874 21.2015 14.2872 21.2265 14.3886 21.2266H16.4619C16.5298 21.2257 16.5965 21.2089 16.6567 21.1775C16.7168 21.1462 16.7688 21.1011 16.8084 21.0459C16.8479 20.9908 16.874 20.9272 16.8845 20.8601C16.8949 20.7931 16.8895 20.7245 16.8686 20.6599C16.7153 20.1666 16.5153 19.4933 16.3953 19.0799C17.2762 18.7995 18.1167 18.4051 18.8953 17.9066C19.0019 17.8333 19.1086 17.7333 19.2153 17.6466C18.6575 17.4761 18.1173 17.2529 17.6019 16.9799C17.4764 16.9145 17.382 16.8019 17.3395 16.6669C17.297 16.5318 17.3098 16.3855 17.3753 16.2599C17.4407 16.1344 17.5533 16.04 17.6883 15.9975C17.8233 15.955 17.9697 15.9678 18.0953 16.0333C18.7627 16.3791 19.4768 16.6261 20.2153 16.7666C20.8066 16.8534 21.4052 16.8802 22.0019 16.8466C22.1344 16.8412 22.2622 16.7965 22.369 16.7181C22.4759 16.6397 22.557 16.5313 22.6019 16.4066L23.7553 13.4466C23.7866 13.3622 23.8006 13.2724 23.7963 13.1825C23.792 13.0927 23.7695 13.0046 23.7303 12.9236C23.6911 12.8426 23.6358 12.7704 23.5679 12.7114C23.5 12.6523 23.4209 12.6076 23.3353 12.5799ZM9.19527 7.72659C9.13111 7.7495 9.06339 7.76079 8.99527 7.75993C8.86422 7.75786 8.73794 7.71042 8.63793 7.62571C8.53793 7.54099 8.47038 7.42422 8.4468 7.2953C8.42321 7.16637 8.44505 7.03326 8.50859 6.91862C8.57213 6.80399 8.67344 6.71492 8.79527 6.66659C10.22 6.13699 11.7631 6.01012 13.2553 6.29993C13.3321 6.30886 13.4063 6.33344 13.4733 6.37215C13.5403 6.41086 13.5987 6.46288 13.6448 6.525C13.6909 6.58712 13.7238 6.65803 13.7415 6.73336C13.7592 6.80869 13.7613 6.88684 13.7476 6.963C13.7339 7.03915 13.7048 7.1117 13.662 7.17616C13.6192 7.24063 13.5637 7.29565 13.4988 7.33784C13.4339 7.38002 13.3611 7.40848 13.2848 7.42145C13.2086 7.43442 13.1304 7.43163 13.0553 7.41326C11.7642 7.1615 10.4288 7.2699 9.19527 7.72659ZM17.5419 11.8066C17.3521 11.8066 17.1665 11.7503 17.0086 11.6448C16.8507 11.5393 16.7277 11.3894 16.655 11.214C16.5823 11.0386 16.5633 10.8455 16.6004 10.6593C16.6374 10.4731 16.7289 10.302 16.8631 10.1678C16.9974 10.0335 17.1684 9.94208 17.3546 9.90504C17.5409 9.868 17.7339 9.88701 17.9093 9.95967C18.0847 10.0323 18.2347 10.1554 18.3401 10.3132C18.4456 10.4711 18.5019 10.6567 18.5019 10.8466C18.5028 10.9727 18.4789 11.0977 18.4314 11.2145C18.384 11.3313 18.314 11.4376 18.2255 11.5274C18.137 11.6171 18.0316 11.6886 17.9155 11.7376C17.7993 11.7867 17.6747 11.8124 17.5486 11.8133L17.5419 11.8066Z" fill="#606060"/>
  </g>
  <defs>
    <clipPath id="clip0_1329_21853">
      <rect width="24" height="24" fill="white"/>
    </clipPath>
  </defs>
</svg>