<svg xmlns="http://www.w3.org/2000/svg" width="24" height="25" viewBox="0 0 24 25" fill="none">
  <g opacity="0.3">
    <path d="M14 7.25L19 12.25M19 12.25L14 17.25M19 12.25L12.5 12.25" stroke="#121212" stroke-width="2"/>
    <path fill-rule="evenodd" clip-rule="evenodd" d="M11 11.25L7.5 11.25C6.94772 11.25 6.5 11.6977 6.5 12.25C6.5 12.8023 6.94771 13.25 7.5 13.25L11 13.25L11 18.25C11 19.3546 10.1046 20.25 9 20.25L5 20.25C3.89543 20.25 3 19.3546 3 18.25L3 6.25C3 5.14543 3.89543 4.25 5 4.25L9 4.25C10.1046 4.25 11 5.14543 11 6.25L11 11.25Z" fill="#606060"/>
  </g>
</svg>