<svg xmlns="http://www.w3.org/2000/svg" width="24" height="25" viewBox="0 0 24 25" fill="none">
<g opacity="0.3">
<path d="M6.5 12.25H10.5" stroke="#121212" stroke-width="2" stroke-linecap="round" stroke-linejoin="round"/>
<path fill-rule="evenodd" clip-rule="evenodd" d="M13.7929 8.95711L13.0858 8.25L14.5 6.83579L15.2071 7.54289L19.2071 11.5429L19.9142 12.25L19.2071 12.9571L15.2071 16.9571L14.5 17.6642L13.0858 16.25L13.7929 15.5429L16.0858 13.25L13 13.25L13 18.25C13 19.3546 13.8954 20.25 15 20.25L19 20.25C20.1046 20.25 21 19.3546 21 18.25L21 6.25C21 5.14543 20.1046 4.25 19 4.25L15 4.25C13.8954 4.25 13 5.14543 13 6.25L13 11.25L16.0858 11.25L13.7929 8.95711Z" fill="#606060"/>
</g>
</svg>