<svg xmlns="http://www.w3.org/2000/svg" width="18" height="19" viewBox="0 0 18 19" fill="none">
  <path d="M14.4375 8.75C14.9627 8.74997 15.4682 8.95032 15.8507 9.31017C16.2333 9.67002 16.4642 10.1623 16.4963 10.6865L16.5 10.8125V15.6875C16.5 15.83 16.4458 15.9672 16.3485 16.0713C16.2512 16.1755 16.118 16.2388 15.9758 16.2485C15.8337 16.2582 15.6931 16.2136 15.5825 16.1237C15.472 16.0337 15.3997 15.9052 15.3802 15.764L15.375 15.6875V14H2.625V15.6875C2.62499 15.8234 2.57577 15.9548 2.48642 16.0572C2.39708 16.1596 2.27367 16.2263 2.139 16.2448L2.0625 16.25C1.92657 16.25 1.79524 16.2008 1.6928 16.1114C1.59036 16.0221 1.52374 15.8987 1.50525 15.764L1.5 15.6875V10.8125C1.49997 10.2873 1.70032 9.78184 2.06017 9.39928C2.42002 9.01671 2.91227 8.78584 3.4365 8.75375L3.5625 8.75H14.4375ZM5.0625 3.5H12.9375C13.4627 3.49997 13.9682 3.70032 14.3507 4.06017C14.7333 4.42002 14.9642 4.91227 14.9963 5.4365L15 5.5625V8H12.75L12.7448 7.91225C12.725 7.74484 12.6494 7.58896 12.5302 7.46976C12.411 7.35056 12.2552 7.27499 12.0878 7.25525L12 7.25H10.5C10.3163 7.25002 10.139 7.31747 10.0017 7.43954C9.86444 7.56161 9.77674 7.72981 9.75525 7.91225L9.75 8H8.25L8.24475 7.91225C8.22501 7.74484 8.14944 7.58896 8.03024 7.46976C7.91104 7.35056 7.75516 7.27499 7.58775 7.25525L7.5 7.25H6C5.8163 7.25002 5.639 7.31747 5.50172 7.43954C5.36444 7.56161 5.27674 7.72981 5.25525 7.91225L5.25 8H3V5.5625C2.99997 5.03729 3.20032 4.53184 3.56017 4.14928C3.92002 3.76671 4.41227 3.53584 4.9365 3.50375L5.0625 3.5Z" fill="#606060"/>
</svg>