<svg xmlns="http://www.w3.org/2000/svg" width="24" height="25" viewBox="0 0 24 25" fill="none">
<path fill-rule="evenodd" clip-rule="evenodd" d="M12.398 20.054C13.881 19.2848 19 16.2663 19 11.25C19 7.38401 15.866 4.25 12 4.25C8.13401 4.25 5 7.38401 5 11.25C5 16.2663 10.119 19.2848 11.602 20.054C11.8548 20.1851 12.1452 20.1851 12.398 20.054ZM12 14.25C13.6569 14.25 15 12.9069 15 11.25C15 9.59315 13.6569 8.25 12 8.25C10.3431 8.25 9 9.59315 9 11.25C9 12.9069 10.3431 14.25 12 14.25Z" fill="#606060"/>
</svg>