<svg xmlns="http://www.w3.org/2000/svg" width="18" height="18" viewBox="0 0 18 18" fill="none">
  <path d="M14.0625 18C15.1068 18 16.1083 17.5852 16.8467 16.8467C17.5852 16.1083 18 15.1068 18 14.0625C18 13.0182 17.5852 12.0167 16.8467 11.2783C16.1083 10.5398 15.1068 10.125 14.0625 10.125C13.0182 10.125 12.0167 10.5398 11.2783 11.2783C10.5398 12.0167 10.125 13.0182 10.125 14.0625C10.125 15.1068 10.5398 16.1083 11.2783 16.8467C12.0167 17.5852 13.0182 18 14.0625 18ZM14.625 12.375V13.5H15.75C15.8992 13.5 16.0423 13.5593 16.1477 13.6648C16.2532 13.7702 16.3125 13.9133 16.3125 14.0625C16.3125 14.2117 16.2532 14.3548 16.1477 14.4602C16.0423 14.5657 15.8992 14.625 15.75 14.625H14.625V15.75C14.625 15.8992 14.5657 16.0423 14.4602 16.1477C14.3548 16.2532 14.2117 16.3125 14.0625 16.3125C13.9133 16.3125 13.7702 16.2532 13.6648 16.1477C13.5593 16.0423 13.5 15.8992 13.5 15.75V14.625H12.375C12.2258 14.625 12.0827 14.5657 11.9773 14.4602C11.8718 14.3548 11.8125 14.2117 11.8125 14.0625C11.8125 13.9133 11.8718 13.7702 11.9773 13.6648C12.0827 13.5593 12.2258 13.5 12.375 13.5H13.5V12.375C13.5 12.2258 13.5593 12.0827 13.6648 11.9773C13.7702 11.8718 13.9133 11.8125 14.0625 11.8125C14.2117 11.8125 14.3548 11.8718 14.4602 11.9773C14.5657 12.0827 14.625 12.2258 14.625 12.375Z" fill="#606060"/>
  <path d="M9.79609 1.68778C9.58512 1.47688 9.29902 1.3584 9.00071 1.3584C8.7024 1.3584 8.4163 1.47688 8.20534 1.68778L0.727461 9.16453C0.675162 9.21683 0.633676 9.27892 0.605372 9.34725C0.577068 9.41558 0.5625 9.48882 0.5625 9.56278C0.5625 9.63675 0.577068 9.70998 0.605372 9.77831C0.633676 9.84665 0.675162 9.90873 0.727461 9.96103C0.833083 10.0667 0.976338 10.126 1.12571 10.126C1.19967 10.126 1.27291 10.1114 1.34124 10.0831C1.40957 10.0548 1.47166 10.0133 1.52396 9.96103L9.00071 2.48316L16.4775 9.96103C16.5831 10.0667 16.7263 10.126 16.8757 10.126C17.0251 10.126 17.1683 10.0667 17.274 9.96103C17.3796 9.85541 17.4389 9.71216 17.4389 9.56278C17.4389 9.41341 17.3796 9.27016 17.274 9.16453L14.6257 6.51741V2.81278C14.6257 2.6636 14.5664 2.52052 14.461 2.41504C14.3555 2.30955 14.2124 2.25028 14.0632 2.25028H12.9382C12.789 2.25028 12.646 2.30955 12.5405 2.41504C12.435 2.52052 12.3757 2.6636 12.3757 2.81278V4.26741L9.79609 1.68778Z" fill="#606060"/>
  <path d="M9 3.70508L14.301 9.00608C13.365 8.96186 12.4351 9.17829 11.6148 9.63127C10.7945 10.0843 10.1161 10.756 9.65496 11.5718C9.19386 12.3875 8.9682 13.3152 9.00312 14.2516C9.03804 15.188 9.33217 16.0963 9.85275 16.8755H3.9375C3.48995 16.8755 3.06073 16.6977 2.74426 16.3812C2.42779 16.0647 2.25 15.6355 2.25 15.188V10.4551L9 3.70508Z" fill="#606060"/>
</svg>