<svg xmlns="http://www.w3.org/2000/svg" width="20" height="20" viewBox="0 0 20 20" fill="none">
  <path d="M10.493 10.8333L8.5763 12.7416C8.4982 12.8191 8.4362 12.9112 8.39389 13.0128C8.35159 13.1143 8.3298 13.2232 8.3298 13.3333C8.3298 13.4433 8.35159 13.5522 8.39389 13.6537C8.4362 13.7553 8.4982 13.8475 8.5763 13.9249C8.65377 14.003 8.74594 14.065 8.84749 14.1073C8.94904 14.1496 9.05796 14.1714 9.16797 14.1714C9.27798 14.1714 9.3869 14.1496 9.48845 14.1073C9.59 14.065 9.68217 14.003 9.75964 13.9249L13.093 10.5916C13.1688 10.5123 13.2283 10.4189 13.268 10.3166C13.3513 10.1137 13.3513 9.88614 13.268 9.68325C13.2283 9.58096 13.1688 9.48751 13.093 9.40825L9.75964 6.07492C9.68194 5.99722 9.5897 5.93559 9.48818 5.89354C9.38666 5.85149 9.27785 5.82984 9.16797 5.82984C9.05809 5.82984 8.94928 5.85149 8.84776 5.89354C8.74624 5.93559 8.654 5.99722 8.5763 6.07492C8.4986 6.15262 8.43697 6.24486 8.39492 6.34638C8.35287 6.4479 8.33123 6.5567 8.33123 6.66659C8.33123 6.77647 8.35287 6.88528 8.39492 6.98679C8.43697 7.08831 8.4986 7.18055 8.5763 7.25825L10.493 9.16659H2.5013C2.28029 9.16659 2.06833 9.25438 1.91205 9.41067C1.75577 9.56695 1.66797 9.77891 1.66797 9.99992C1.66797 10.2209 1.75577 10.4329 1.91205 10.5892C2.06833 10.7455 2.28029 10.8333 2.5013 10.8333H10.493ZM10.0013 1.66659C8.44388 1.65963 6.91567 2.08926 5.59003 2.90675C4.26438 3.72423 3.19435 4.89684 2.5013 6.29159C2.40185 6.4905 2.38548 6.72077 2.45581 6.93175C2.52613 7.14273 2.67739 7.31713 2.8763 7.41659C3.07521 7.51604 3.30549 7.53241 3.51647 7.46208C3.72745 7.39176 3.90185 7.2405 4.0013 7.04159C4.52813 5.97769 5.3295 5.07377 6.32259 4.42324C7.31569 3.77272 8.46449 3.39918 9.65027 3.34125C10.836 3.28331 12.0158 3.54307 13.0676 4.09368C14.1194 4.64429 15.005 5.46578 15.6331 6.47325C16.2611 7.48072 16.6087 8.63763 16.64 9.82441C16.6712 11.0112 16.385 12.1848 15.8109 13.2239C15.2368 14.2631 14.3956 15.13 13.3743 15.7353C12.3529 16.3405 11.1885 16.662 10.0013 16.6666C8.7587 16.672 7.53976 16.3269 6.48438 15.671C5.42899 15.015 4.57993 14.0748 4.03464 12.9583C3.93518 12.7593 3.76078 12.6081 3.5498 12.5378C3.33882 12.4674 3.10855 12.4838 2.90964 12.5833C2.71072 12.6827 2.55947 12.8571 2.48914 13.0681C2.41881 13.2791 2.43518 13.5093 2.53464 13.7083C3.19533 15.0378 4.19924 16.1668 5.44253 16.9783C6.68582 17.7898 8.12334 18.2544 9.6064 18.3241C11.0895 18.3937 12.5642 18.0659 13.8781 17.3745C15.192 16.6831 16.2973 15.6532 17.0797 14.3914C17.8621 13.1296 18.2932 11.6817 18.3284 10.1974C18.3636 8.71314 18.0016 7.24641 17.2798 5.94895C16.5581 4.65148 15.5028 3.57039 14.2232 2.81751C12.9435 2.06462 11.486 1.66728 10.0013 1.66659V1.66659Z" fill="#FF0000"/>
</svg>