<svg xmlns="http://www.w3.org/2000/svg" width="39" height="30" viewBox="0 0 39 30" fill="none">
  <g clip-path="url(#clip0_140_736)">
    <path d="M7.01567 29.8506V27.865C7.01567 27.1037 6.55225 26.6074 5.75793 26.6074C5.36084 26.6074 4.93059 26.7398 4.6327 27.17C4.40114 26.806 4.07024 26.6074 3.57381 26.6074C3.24275 26.6074 2.912 26.7066 2.64712 27.0707V26.6736H1.95215V29.8506H2.64712V28.0966C2.64712 27.5341 2.94501 27.2692 3.40843 27.2692C3.87155 27.2692 4.1034 27.5671 4.1034 28.0966V29.8506H4.79838V28.0966C4.79838 27.5341 5.12913 27.2692 5.55938 27.2692C6.0228 27.2692 6.25436 27.5671 6.25436 28.0966V29.8506H7.01567ZM17.3078 26.6736H16.1827V25.7139H15.4877V26.6736H14.8589V27.3022H15.4876V28.7585C15.4876 29.4867 15.7855 29.9168 16.5798 29.9168C16.8777 29.9168 17.2084 29.8176 17.4403 29.6852L17.2416 29.0894C17.0431 29.2218 16.8115 29.255 16.646 29.255C16.3151 29.255 16.1827 29.0564 16.1827 28.7254V27.3022H17.3078V26.6736ZM23.1986 26.6073C22.8015 26.6073 22.5368 26.806 22.3713 27.0707V26.6736H21.6763V29.8506H22.3713V28.0636C22.3713 27.5341 22.6029 27.2362 23.0331 27.2362C23.1655 27.2362 23.331 27.2694 23.4634 27.3024L23.6619 26.6406C23.5295 26.6074 23.331 26.6074 23.1986 26.6074V26.6073ZM14.2963 26.9383C13.9653 26.7066 13.502 26.6074 13.0056 26.6074C12.2114 26.6074 11.6819 27.0045 11.6819 27.6333C11.6819 28.1629 12.079 28.4606 12.774 28.56L13.1049 28.5932C13.469 28.6592 13.6675 28.7585 13.6675 28.9241C13.6675 29.1556 13.4028 29.3211 12.9394 29.3211C12.4761 29.3211 12.112 29.1556 11.8803 28.9902L11.5494 29.5197C11.9135 29.7844 12.4099 29.9168 12.9062 29.9168C13.8329 29.9168 14.3625 29.4867 14.3625 28.8909C14.3625 28.3283 13.9322 28.0304 13.2703 27.9312L12.9394 27.898C12.6415 27.8649 12.4099 27.7988 12.4099 27.6003C12.4099 27.3686 12.6415 27.2362 13.0056 27.2362C13.4028 27.2362 13.7999 27.4016 13.9984 27.5009L14.2963 26.9383ZM32.7629 26.6074C32.3657 26.6074 32.1009 26.806 31.9354 27.0707V26.6736H31.2404V29.8506H31.9354V28.0636C31.9354 27.5341 32.1671 27.2362 32.5972 27.2362C32.7297 27.2362 32.8953 27.2694 33.0276 27.3024L33.2262 26.6406C33.0938 26.6074 32.8953 26.6074 32.7629 26.6074ZM23.8936 28.2621C23.8936 29.2218 24.5554 29.9168 25.5814 29.9168C26.0447 29.9168 26.3756 29.8176 26.7065 29.5528L26.3756 28.9902C26.1109 29.1888 25.8462 29.288 25.5483 29.288C24.9857 29.288 24.5886 28.8909 24.5886 28.2621C24.5886 27.6665 24.9857 27.2692 25.5483 27.2362C25.8462 27.2362 26.1109 27.3354 26.3756 27.5341L26.7065 26.9715C26.3756 26.7066 26.0447 26.6074 25.5814 26.6074C24.5554 26.6074 23.8936 27.3024 23.8936 28.2621ZM30.3139 28.2621V26.6736H29.6189V27.0707C29.3872 26.773 29.0563 26.6074 28.6261 26.6074C27.7326 26.6074 27.0376 27.3024 27.0376 28.2621C27.0376 29.2218 27.7326 29.9168 28.6261 29.9168C29.0893 29.9168 29.4204 29.7514 29.6189 29.4535V29.8506H30.3139V28.2621ZM27.7656 28.2621C27.7656 27.6995 28.1296 27.2362 28.7253 27.2362C29.2879 27.2362 29.6851 27.6665 29.6851 28.2621C29.6851 28.8247 29.2879 29.288 28.7253 29.288C28.1296 29.2548 27.7656 28.8247 27.7656 28.2621ZM19.459 26.6074C18.5323 26.6074 17.8704 27.2692 17.8704 28.2621C17.8704 29.255 18.5322 29.9168 19.492 29.9168C19.9553 29.9168 20.4187 29.7844 20.7828 29.4867L20.4517 28.9902C20.187 29.1888 19.8561 29.3211 19.5252 29.3211C19.095 29.3211 18.6647 29.1226 18.5654 28.5598H20.9152V28.2953C20.9483 27.2692 20.3527 26.6074 19.459 26.6074ZM19.459 27.2031C19.8891 27.2031 20.1872 27.4679 20.2532 27.9644H18.5985C18.6647 27.5341 18.9626 27.2031 19.459 27.2031ZM36.701 28.2621V25.416H36.0061V27.0707C35.7744 26.773 35.4435 26.6074 35.0132 26.6074C34.1197 26.6074 33.4247 27.3024 33.4247 28.2621C33.4247 29.2218 34.1197 29.9168 35.0132 29.9168C35.4766 29.9168 35.8075 29.7514 36.0061 29.4535V29.8506H36.701V28.2621ZM34.1529 28.2621C34.1529 27.6995 34.5168 27.2362 35.1125 27.2362C35.6752 27.2362 36.0723 27.6665 36.0723 28.2621C36.0723 28.8247 35.6752 29.288 35.1125 29.288C34.5168 29.2548 34.1529 28.8247 34.1529 28.2621ZM10.9206 28.2621V26.6736H10.2257V27.0707C9.99396 26.773 9.66305 26.6074 9.2328 26.6074C8.33928 26.6074 7.64431 27.3024 7.64431 28.2621C7.64431 29.2218 8.33928 29.9168 9.2328 29.9168C9.69622 29.9168 10.0271 29.7514 10.2257 29.4535V29.8506H10.9206V28.2621ZM8.33928 28.2621C8.33928 27.6995 8.70335 27.2362 9.29898 27.2362C9.8616 27.2362 10.2588 27.6665 10.2588 28.2621C10.2588 28.8247 9.8616 29.288 9.29898 29.288C8.70335 29.2548 8.33928 28.8247 8.33928 28.2621Z" fill="black"/>
    <path d="M14.0654 2.54883H24.4901V21.2801H14.0654V2.54883Z" fill="#FF5F00"/>
    <path d="M14.727 11.9139C14.727 8.10814 16.514 4.73246 19.2608 2.54819C17.2422 0.959698 14.694 0 11.9141 0C5.32809 0 0 5.32809 0 11.9139C0 18.4996 5.32809 23.8278 11.9139 23.8278C14.6938 23.8278 17.242 22.8681 19.2608 21.2795C16.514 19.1284 14.727 15.7197 14.727 11.9139Z" fill="#EB001B"/>
    <path d="M38.5547 11.9139C38.5547 18.4996 33.2266 23.8278 26.6408 23.8278C23.8609 23.8278 21.3127 22.8681 19.2939 21.2795C22.0738 19.0954 23.8279 15.7197 23.8279 11.9139C23.8279 8.10814 22.0407 4.73246 19.2939 2.54819C21.3125 0.959698 23.8609 0 26.6408 0C33.2266 0 38.5547 5.36126 38.5547 11.9139Z" fill="#F79E1B"/>
  </g>
  <defs>
    <clipPath id="clip0_140_736">
      <rect width="38.593" height="30" fill="white"/>
    </clipPath>
  </defs>
</svg>