<svg width="24" height="24" viewBox="0 0 24 24" fill="none" xmlns="http://www.w3.org/2000/svg">
<g clip-path="url(#clip0_354_2555)">
<path d="M12.9473 22.853C13.3673 22.8433 13.7703 22.6855 14.085 22.4073C14.3998 22.1291 14.6061 21.7486 14.6673 21.333H11.1606C11.2236 21.7599 11.4395 22.1493 11.7682 22.4289C12.0968 22.7085 12.5159 22.8592 12.9473 22.853Z" fill="#111110"/>
<path d="M22.8474 18.7536L22.6207 18.5536C21.9777 17.9807 21.4148 17.3236 20.9474 16.6003C20.4369 15.602 20.1309 14.5117 20.0474 13.3936V10.1003C20.0447 9.70023 20.009 9.3011 19.9407 8.90693C18.8115 8.67482 17.7971 8.05961 17.0694 7.16545C16.3417 6.27129 15.9453 5.15312 15.9474 4.00026V3.58026C15.2513 3.23772 14.5035 3.01247 13.734 2.91359V2.07359C13.734 1.83755 13.6403 1.61118 13.4734 1.44427C13.3065 1.27736 13.0801 1.18359 12.844 1.18359C12.608 1.18359 12.3816 1.27736 12.2147 1.44427C12.0478 1.61118 11.954 1.83755 11.954 2.07359V2.94693C10.2312 3.18996 8.65443 4.04809 7.51486 5.36288C6.37529 6.67768 5.74987 8.36035 5.75405 10.1003V13.3936C5.67055 14.5117 5.36456 15.602 4.85405 16.6003C4.39463 17.3218 3.84084 17.9788 3.20738 18.5536L2.98071 18.7536V20.6336H22.8474V18.7536Z" fill="#111110"/>
<path d="M20.9473 7.33366C22.7883 7.33366 24.2807 5.84127 24.2807 4.00033C24.2807 2.15938 22.7883 0.666992 20.9473 0.666992C19.1064 0.666992 17.614 2.15938 17.614 4.00033C17.614 5.84127 19.1064 7.33366 20.9473 7.33366Z" fill="#E33629"/>
</g>
<defs>
<clipPath id="clip0_354_2555">
<rect width="24" height="24" fill="white" transform="translate(0.947266)"/>
</clipPath>
</defs>
</svg>
