<svg xmlns="http://www.w3.org/2000/svg" width="20" height="20" viewBox="0 0 20 20" fill="none">
  <g clip-path="url(#clip0_140_763)">
    <path d="M10.0003 18.3327C5.39783 18.3327 1.66699 14.6018 1.66699 9.99935C1.66699 5.39685 5.39783 1.66602 10.0003 1.66602C14.6028 1.66602 18.3337 5.39685 18.3337 9.99935C18.3337 14.6018 14.6028 18.3327 10.0003 18.3327ZM10.0003 16.666C11.7684 16.666 13.4641 15.9636 14.7144 14.7134C15.9646 13.4632 16.667 11.7675 16.667 9.99935C16.667 8.23124 15.9646 6.53555 14.7144 5.2853C13.4641 4.03506 11.7684 3.33268 10.0003 3.33268C8.23222 3.33268 6.53652 4.03506 5.28628 5.2853C4.03604 6.53555 3.33366 8.23124 3.33366 9.99935C3.33366 11.7675 4.03604 13.4632 5.28628 14.7134C6.53652 15.9636 8.23222 16.666 10.0003 16.666ZM9.16699 12.4993H10.8337V14.166H9.16699V12.4993ZM10.8337 11.1285V11.666H9.16699V10.416C9.16699 10.195 9.25479 9.98304 9.41107 9.82676C9.56735 9.67048 9.77931 9.58268 10.0003 9.58268C10.2371 9.58267 10.4689 9.51543 10.6689 9.38879C10.8689 9.26215 11.0289 9.08132 11.1301 8.86734C11.2314 8.65335 11.2698 8.41501 11.2409 8.18005C11.212 7.94509 11.117 7.72317 10.9669 7.54011C10.8168 7.35705 10.6178 7.22037 10.393 7.14599C10.1683 7.07161 9.92702 7.06257 9.69735 7.11994C9.46767 7.1773 9.25901 7.29871 9.09563 7.47003C8.93226 7.64135 8.82089 7.85554 8.77449 8.08768L7.13949 7.76018C7.24085 7.25359 7.47492 6.78299 7.81776 6.3965C8.1606 6.01002 8.59992 5.7215 9.09082 5.56045C9.58171 5.3994 10.1066 5.37159 10.6117 5.47986C11.1169 5.58814 11.5842 5.82861 11.966 6.1767C12.3478 6.5248 12.6303 6.96802 12.7846 7.46107C12.9389 7.95412 12.9595 8.4793 12.8444 8.98294C12.7292 9.48658 12.4824 9.9506 12.1291 10.3276C11.7758 10.7045 11.3288 10.9809 10.8337 11.1285Z" fill="#232323"/>
  </g>
  <defs>
    <clipPath id="clip0_140_763">
      <rect width="20" height="20" fill="white"/>
    </clipPath>
  </defs>
</svg>