<svg xmlns="http://www.w3.org/2000/svg" width="24" height="24" viewBox="0 0 24 24" fill="none">
  <path d="M20.5861 11.3331L4.08607 3.08312C3.95675 3.01844 3.81149 2.99253 3.66778 3.00849C3.52407 3.02446 3.38804 3.08163 3.27607 3.17312C3.16914 3.26273 3.08933 3.3804 3.0456 3.5129C3.00188 3.64539 2.99598 3.78745 3.02857 3.92312L5.01607 11.2506H13.4986V12.7506H5.01607L2.99857 20.0556C2.96799 20.1689 2.96442 20.2878 2.98815 20.4027C3.01188 20.5176 3.06224 20.6254 3.13519 20.7173C3.20814 20.8092 3.30164 20.8827 3.40817 20.9319C3.5147 20.9811 3.63129 21.0047 3.74857 21.0006C3.86598 20.9999 3.98158 20.9717 4.08607 20.9181L20.5861 12.6681C20.7089 12.6052 20.812 12.5096 20.884 12.3918C20.956 12.274 20.9941 12.1386 20.9941 12.0006C20.9941 11.8626 20.956 11.7272 20.884 11.6094C20.812 11.4917 20.7089 11.3961 20.5861 11.3331Z" fill="#606060"/>
</svg>