<svg xmlns="http://www.w3.org/2000/svg" width="19" height="18" viewBox="0 0 19 18" fill="none">
  <g clip-path="url(#clip0_1308_19440)">
    <path d="M4.88965 13.9993C5.23285 13.0283 6.15888 12.3327 7.2474 12.3327C8.3359 12.3327 9.26198 13.0283 9.60515 13.9993H18.0807V15.666H9.60515C9.26198 16.637 8.3359 17.3327 7.2474 17.3327C6.15888 17.3327 5.23285 16.637 4.88965 15.666H1.41406V13.9993H4.88965ZM9.88965 8.16602C10.2328 7.19502 11.1589 6.49935 12.2474 6.49935C13.3359 6.49935 14.262 7.19502 14.6051 8.16602H18.0807V9.83268H14.6051C14.262 10.8037 13.3359 11.4993 12.2474 11.4993C11.1589 11.4993 10.2328 10.8037 9.88965 9.83268H1.41406V8.16602H9.88965ZM4.88965 2.33268C5.23285 1.36169 6.15888 0.666016 7.2474 0.666016C8.3359 0.666016 9.26198 1.36169 9.60515 2.33268H18.0807V3.99935H9.60515C9.26198 4.97034 8.3359 5.66602 7.2474 5.66602C6.15888 5.66602 5.23285 4.97034 4.88965 3.99935H1.41406V2.33268H4.88965ZM7.2474 3.99935C7.70763 3.99935 8.08073 3.62625 8.08073 3.16602C8.08073 2.70578 7.70763 2.33268 7.2474 2.33268C6.78716 2.33268 6.41406 2.70578 6.41406 3.16602C6.41406 3.62625 6.78716 3.99935 7.2474 3.99935ZM12.2474 9.83268C12.7076 9.83268 13.0807 9.4596 13.0807 8.99935C13.0807 8.5391 12.7076 8.16602 12.2474 8.16602C11.7871 8.16602 11.4141 8.5391 11.4141 8.99935C11.4141 9.4596 11.7871 9.83268 12.2474 9.83268ZM7.2474 15.666C7.70763 15.666 8.08073 15.2929 8.08073 14.8327C8.08073 14.3724 7.70763 13.9993 7.2474 13.9993C6.78716 13.9993 6.41406 14.3724 6.41406 14.8327C6.41406 15.2929 6.78716 15.666 7.2474 15.666Z" fill="white"/>
  </g>
  <defs>
    <clipPath id="clip0_1308_19440">
      <rect width="18" height="18" fill="white" transform="translate(0.75)"/>
    </clipPath>
  </defs>
</svg>