<svg width="25" height="25" viewBox="0 0 25 25" fill="none" xmlns="http://www.w3.org/2000/svg">
<path d="M22.5 12.5C22.5 12.91 22.16 13.25 21.75 13.25H10.05C9.71999 14.42 8.64999 15.29 7.35999 15.29C6.07999 15.29 5.00001 14.42 4.67001 13.25H3.25C2.84 13.25 2.5 12.91 2.5 12.5C2.5 12.09 2.84 11.75 3.25 11.75H4.67001C5.00001 10.58 6.07999 9.70996 7.35999 9.70996C8.64999 9.70996 9.71999 10.58 10.05 11.75H21.75C22.16 11.75 22.5 12.09 22.5 12.5Z" fill="#111110"/>
<path d="M22.5 19.6504C22.5 20.0704 22.16 20.4004 21.75 20.4004H20.33C20 21.5804 18.92 22.4404 17.64 22.4404C16.36 22.4404 15.28 21.5804 14.95 20.4004H3.25C2.84 20.4004 2.5 20.0704 2.5 19.6504C2.5 19.2404 2.84 18.9004 3.25 18.9004H14.95C15.28 17.7304 16.36 16.8604 17.64 16.8604C18.92 16.8604 20 17.7304 20.33 18.9004H21.75C22.16 18.9004 22.5 19.2404 22.5 19.6504Z" fill="#111110"/>
<path d="M22.5 5.34957C22.5 5.75957 22.16 6.09957 21.75 6.09957H20.33C20 7.26957 18.92 8.13957 17.64 8.13957C16.36 8.13957 15.28 7.26957 14.95 6.09957H3.25C2.84 6.09957 2.5 5.75957 2.5 5.34957C2.5 4.92957 2.84 4.59957 3.25 4.59957H14.95C15.28 3.41957 16.36 2.55957 17.64 2.55957C18.92 2.55957 20 3.41957 20.33 4.59957H21.75C22.16 4.59957 22.5 4.92957 22.5 5.34957Z" fill="#111110"/>
</svg>
