<svg xmlns="http://www.w3.org/2000/svg" width="45" height="46" viewBox="0 0 45 46" fill="none">
  <g clip-path="url(#clip0_709_11371)">
    <path d="M45 23C45 28.9674 42.6295 34.6903 38.4099 38.9099C34.1903 43.1295 28.4674 45.5 22.5 45.5C16.5326 45.5 10.8097 43.1295 6.5901 38.9099C2.37053 34.6903 0 28.9674 0 23C0 17.0326 2.37053 11.3097 6.5901 7.0901C10.8097 2.87053 16.5326 0.5 22.5 0.5C28.4674 0.5 34.1903 2.87053 38.4099 7.0901C42.6295 11.3097 45 17.0326 45 23ZM23.3072 17.1106C21.1191 18.0219 16.7428 19.9062 10.1841 22.7638C9.12094 23.1856 8.56125 23.6019 8.51062 24.0069C8.42625 24.6903 9.28406 24.9603 10.4513 25.3288L10.9434 25.4834C12.0909 25.8575 13.6378 26.2934 14.4394 26.3103C15.1706 26.3272 15.9834 26.0291 16.8806 25.4103C23.0091 21.2731 26.1731 19.1834 26.37 19.1384C26.5106 19.1047 26.7075 19.0653 26.8369 19.1834C26.9691 19.2987 26.955 19.5209 26.9409 19.58C26.8566 19.9428 23.49 23.0703 21.7491 24.6903C21.2062 25.1966 20.8209 25.5538 20.7422 25.6353C20.5688 25.8125 20.3925 25.9869 20.2134 26.1584C19.1447 27.1878 18.3459 27.9584 20.2556 29.2184C21.1753 29.8259 21.9122 30.3237 22.6462 30.8244C23.445 31.37 24.2437 31.9128 25.2787 32.5934C25.5403 32.7622 25.7934 32.945 26.0381 33.1194C26.9691 33.7831 27.81 34.3794 28.8422 34.2837C29.4441 34.2275 30.0656 33.665 30.3806 31.9775C31.1259 27.9922 32.5913 19.3606 32.9287 15.8028C32.9493 15.5071 32.9371 15.2099 32.8922 14.9169C32.8657 14.6804 32.7513 14.4625 32.5716 14.3066C32.3157 14.1299 32.0106 14.0384 31.6997 14.045C30.8559 14.0591 29.5537 14.5119 23.3072 17.1106Z" fill="#18ACE8"/>
  </g>
  <defs>
    <clipPath id="clip0_709_11371">
      <rect width="45" height="45" fill="white" transform="translate(0 0.5)"/>
    </clipPath>
  </defs>
</svg>