<svg width="38" height="32" viewBox="0 0 38 32" fill="none" xmlns="http://www.w3.org/2000/svg">
<path d="M33.3543 5.60781C35.0376 4.57448 36.1522 3.16406 36.698 1.37031C35.1607 2.20179 33.5109 2.80599 31.8001 3.16406C30.3355 1.58906 28.4814 0.789062 26.2585 0.789062C24.0855 0.789062 22.2501 1.55156 20.7522 3.0349C20.0288 3.73928 19.4569 4.58395 19.0714 5.51715C18.686 6.45035 18.4951 7.45242 18.5105 8.46198C18.5105 9.10573 18.5918 9.68073 18.7543 10.1682C12.346 9.94948 7.0418 7.29115 2.86263 2.17448C2.1543 3.42656 1.80013 4.70156 1.80013 6.02031C1.80013 8.73073 2.94388 10.8786 5.22721 12.4557C3.92513 12.3453 2.77721 12.0161 1.80013 11.4766C1.80013 13.412 2.36888 15.0286 3.50846 16.4516C4.61545 17.8381 6.1755 18.7904 7.91471 19.1411C7.26471 19.3078 6.5793 19.387 5.87513 19.387C5.22513 19.387 4.76471 19.3328 4.4918 19.2141C4.97096 20.7911 5.87513 22.0703 7.18138 23.0495C8.47271 24.03 10.0435 24.5723 11.6647 24.5974C8.88971 26.7745 5.7168 27.8516 2.12721 27.8516C1.24805 27.8516 0.62513 27.8391 0.248047 27.7724C3.78346 30.0682 7.71888 31.2078 12.073 31.2078C16.5293 31.2078 20.4668 30.0786 23.8939 27.8203C27.321 25.5745 29.8501 22.8036 31.4751 19.5411C33.0821 16.3843 33.9188 12.8918 33.9168 9.34948V8.37448C35.4146 7.27015 36.7113 5.91638 37.7501 4.3724C36.3472 4.98044 34.8686 5.39601 33.3543 5.60781Z" fill="#18ACE8"/>
</svg>
