<svg xmlns="http://www.w3.org/2000/svg" width="24" height="24" viewBox="0 0 24 24" fill="none">
  <path d="M12 24C18.6274 24 24 18.6274 24 12C24 5.37258 18.6274 0 12 0C5.37258 0 0 5.37258 0 12C0 18.6274 5.37258 24 12 24Z" fill="#26A17B"/>
  <path d="M13.5378 13.1063V13.1047C13.4498 13.1111 12.9962 13.1383 11.9842 13.1383C11.1762 13.1383 10.6074 13.1143 10.4074 13.1047V13.1071C7.29703 12.9703 4.97543 12.4287 4.97543 11.7807C4.97543 11.1335 7.29703 10.5919 10.4074 10.4527V12.5679C10.6106 12.5823 11.193 12.6167 11.9978 12.6167C12.9634 12.6167 13.4474 12.5767 13.5378 12.5687V10.4543C16.6418 10.5927 18.9578 11.1343 18.9578 11.7807C18.9578 12.4287 16.6418 12.9687 13.5378 13.1063ZM13.5378 10.2343V8.34148H17.869V5.45508H6.07623V8.34148H10.4074V10.2335C6.88743 10.3951 4.24023 11.0927 4.24023 11.9279C4.24023 12.7631 6.88743 13.4599 10.4074 13.6223V19.6879H13.5378V13.6207C17.0522 13.4591 19.693 12.7623 19.693 11.9279C19.693 11.0935 17.0522 10.3967 13.5378 10.2343Z" fill="white"/>
</svg>