<svg width="42" height="42" viewBox="0 0 42 42" fill="none" xmlns="http://www.w3.org/2000/svg">
<path d="M0.175353 41.8327L2.99202 31.4827C1.13606 28.3011 0.16097 24.6827 0.16702 20.9993C0.16702 9.4931 9.4941 0.166016 21.0004 0.166016C32.5066 0.166016 41.8337 9.4931 41.8337 20.9993C41.8337 32.5056 32.5066 41.8327 21.0004 41.8327C17.3186 41.8386 13.7017 40.8643 10.5212 39.0098L0.175353 41.8327ZM13.4816 11.2243C13.2126 11.2411 12.9497 11.3119 12.7087 11.4327C12.4827 11.5607 12.2764 11.7206 12.0962 11.9077C11.8462 12.1431 11.7045 12.3473 11.5524 12.5452C10.7825 13.5473 10.3683 14.7773 10.3754 16.041C10.3795 17.0618 10.6462 18.0556 11.0629 18.9848C11.9149 20.8639 13.317 22.8535 15.1691 24.6973C15.6149 25.141 16.0504 25.5868 16.5191 26.0014C18.8178 28.0253 21.5571 29.4848 24.5191 30.2639L25.7045 30.4452C26.0899 30.466 26.4754 30.4368 26.8629 30.4181C27.4696 30.3868 28.062 30.2225 28.5983 29.9368C28.8711 29.7963 29.1373 29.6434 29.3962 29.4785C29.3962 29.4785 29.4858 29.4202 29.6566 29.291C29.9379 29.0827 30.1108 28.9348 30.3441 28.691C30.517 28.5118 30.667 28.3014 30.7816 28.0618C30.9441 27.7223 31.1066 27.0743 31.1733 26.5348C31.2233 26.1223 31.2087 25.8973 31.2024 25.7577C31.1941 25.5348 31.0087 25.3035 30.8066 25.2056L29.5941 24.6618C29.5941 24.6618 27.7816 23.8723 26.6754 23.3681C26.5587 23.3173 26.4337 23.2883 26.3066 23.2827C26.1641 23.268 26.02 23.2841 25.8842 23.3297C25.7484 23.3754 25.6239 23.4495 25.5191 23.5473V23.5431C25.5087 23.5431 25.3691 23.6618 23.8629 25.4868C23.7764 25.603 23.6573 25.6908 23.5208 25.739C23.3842 25.7873 23.2364 25.7938 23.0962 25.7577C22.9604 25.7214 22.8275 25.6754 22.6983 25.6202C22.4399 25.5118 22.3504 25.4702 22.1733 25.3931L22.1629 25.3889C20.971 24.8686 19.8675 24.1657 18.892 23.3056C18.6295 23.0764 18.3858 22.8264 18.1358 22.5848C17.3161 21.7998 16.6018 20.9119 16.0108 19.9431L15.8879 19.7452C15.7996 19.6122 15.7282 19.4687 15.6754 19.3181C15.5962 19.0118 15.8024 18.766 15.8024 18.766C15.8024 18.766 16.3087 18.2118 16.5441 17.9118C16.7401 17.6625 16.923 17.4031 17.092 17.1348C17.3379 16.7389 17.4149 16.3327 17.2858 16.0181C16.7024 14.5931 16.0983 13.1743 15.4774 11.766C15.3545 11.4868 14.9899 11.2868 14.6587 11.2473C14.5462 11.2348 14.4337 11.2223 14.3212 11.2139C14.0414 11.2 13.761 11.2028 13.4816 11.2223V11.2243Z" fill="#68B574"/>
</svg>
