<svg width="24" height="25" viewBox="0 0 24 25" fill="none" xmlns="http://www.w3.org/2000/svg">
<path d="M10.134 11.0339L11.7435 9.55789C12.1839 9.15381 12.4936 8.62737 12.6329 8.04609C12.7721 7.4648 12.7345 6.85517 12.525 6.29539L11.8372 4.45939C11.5805 3.77435 11.0723 3.21296 10.4161 2.88966C9.75985 2.56635 9.00504 2.50546 8.30547 2.71939C5.73147 3.50689 3.75297 5.89939 4.36197 8.74114C4.76247 10.6101 5.52822 12.9561 6.98097 15.4529C8.19827 17.5557 9.72969 19.4601 11.5222 21.1004C13.6747 23.0594 16.7497 22.5696 18.7282 20.7254C19.2586 20.2309 19.5804 19.5528 19.628 18.8292C19.6757 18.1057 19.4456 17.3912 18.9847 16.8314L17.724 15.2999C17.344 14.8381 16.8347 14.5003 16.2613 14.3301C15.688 14.1598 15.0769 14.1648 14.5065 14.3444L12.4245 15.0006C12.3442 14.9181 12.252 14.8199 12.15 14.7066C11.7219 14.2331 11.3432 13.7172 11.0197 13.1669C10.705 12.6115 10.4477 12.0255 10.2517 11.4179C10.2098 11.2907 10.1706 11.1627 10.134 11.0339Z" fill="#FAFAFA"/>
</svg>
