<svg width="24" height="25" viewBox="0 0 24 25" fill="none" xmlns="http://www.w3.org/2000/svg">
<path d="M21.6004 9.34838V17.9008C21.6004 18.6964 21.2843 19.4595 20.7217 20.0221C20.1591 20.5847 19.396 20.9008 18.6004 20.9008H5.40039C4.60474 20.9008 3.84168 20.5847 3.27907 20.0221C2.71646 19.4595 2.40039 18.6964 2.40039 17.9008V9.34838L11.6956 14.818C11.7879 14.8724 11.8932 14.9012 12.0004 14.9012C12.1076 14.9012 12.2128 14.8724 12.3052 14.818L21.6004 9.34838ZM18.6004 5.30078C19.3386 5.30067 20.0509 5.57271 20.601 6.06487C21.1512 6.55703 21.5006 7.23475 21.5824 7.96838L12.0004 13.6048L2.41839 7.96838C2.50018 7.23475 2.84958 6.55703 3.39974 6.06487C3.94991 5.57271 4.66222 5.30067 5.40039 5.30078H18.6004Z" fill="#FAFAFA"/>
</svg>
