<svg width="28" height="22" viewBox="0 0 28 22" fill="none" xmlns="http://www.w3.org/2000/svg">
<path d="M24.3345 3.51833C25.5465 2.77433 26.349 1.75883 26.742 0.467329C25.6351 1.06599 24.4473 1.50102 23.2155 1.75883C22.161 0.624829 20.826 0.0488281 19.2255 0.0488281C17.661 0.0488281 16.3395 0.597828 15.261 1.66583C14.7402 2.17299 14.3284 2.78115 14.0509 3.45305C13.7734 4.12495 13.6359 4.84645 13.647 5.57333C13.647 6.03683 13.7055 6.45083 13.8225 6.80183C9.20855 6.64433 5.38955 4.73033 2.38055 1.04633C1.87055 1.94783 1.61555 2.86583 1.61555 3.81533C1.61555 5.76683 2.43905 7.31333 4.08305 8.44883C3.14555 8.36933 2.31905 8.13233 1.61555 7.74383C1.61555 9.13733 2.02505 10.3013 2.84555 11.3258C3.64258 12.3241 4.76581 13.0098 6.01805 13.2623C5.55005 13.3823 5.05655 13.4393 4.54955 13.4393C4.08155 13.4393 3.75005 13.4003 3.55355 13.3148C3.89855 14.4503 4.54955 15.3713 5.49005 16.0763C6.41981 16.7823 7.55078 17.1728 8.71805 17.1908C6.72005 18.7583 4.43555 19.5338 1.85105 19.5338C1.21805 19.5338 0.769547 19.5248 0.498047 19.4768C3.04355 21.1298 5.87705 21.9503 9.01205 21.9503C12.2205 21.9503 15.0555 21.1373 17.523 19.5113C19.9905 17.8943 21.8115 15.8993 22.9815 13.5503C24.1386 11.2774 24.741 8.76281 24.7395 6.21233V5.51033C25.818 4.71522 26.7516 3.7405 27.4995 2.62883C26.4895 3.06662 25.4248 3.36583 24.3345 3.51833Z" fill="#FAFAFA"/>
</svg>
