<svg width="30" height="30" viewBox="0 0 30 30" fill="none" xmlns="http://www.w3.org/2000/svg">
<path d="M15 0.0605469C6.75 0.0605469 0 6.79555 0 15.0905C0 22.5905 5.49 28.8155 12.66 29.9405V19.4405H8.85V15.0905H12.66V11.7755C12.66 8.01055 14.895 5.94055 18.33 5.94055C19.965 5.94055 21.675 6.22555 21.675 6.22555V9.93055H19.785C17.925 9.93055 17.34 11.0855 17.34 12.2705V15.0905H21.51L20.835 19.4405H17.34V29.9405C20.8747 29.3823 24.0933 27.5788 26.4149 24.8556C28.7365 22.1325 30.008 18.669 30 15.0905C30 6.79555 23.25 0.0605469 15 0.0605469Z" fill="#FAFAFA"/>
</svg>
