<svg xmlns="http://www.w3.org/2000/svg" width="25" height="24" viewBox="0 0 25 24" fill="none">
<path d="M16.5895 21.55L17.2501 20.7993C16.7594 20.3675 16.2772 19.9247 15.7859 19.4735L15.7844 19.4721L15.7792 19.4673C14.9634 18.7212 14.1358 17.9642 13.3062 17.2459C12.8396 16.8378 12.1481 16.838 11.6818 17.2467C10.8527 17.9647 10.0156 18.7211 9.19124 19.4852C8.70175 19.9347 8.22651 20.3703 7.75225 20.7952L7.74897 20.7981C7.52644 20.9993 7.22709 21.0493 6.94032 20.9238C6.6698 20.8055 6.49951 20.5487 6.49951 20.24V4.75C6.49951 3.78228 7.2818 3 8.24951 3H16.7495C17.7173 3 18.5016 3.78321 18.5095 4.74368V20.24C18.5095 20.5398 18.3462 20.798 18.0568 20.9291L18.0474 20.9334L18.0381 20.9379C17.9546 20.9778 17.8539 21 17.7495 21C17.5867 21 17.4081 20.9381 17.2496 20.7988L16.5895 21.55ZM16.5895 21.55C16.9195 21.84 17.3295 22 17.7495 22C17.9895 22 18.2395 21.95 18.4695 21.84L12.3395 18C12.4295 17.92 12.5595 17.92 12.6495 18C13.4695 18.71 14.2895 19.46 15.1094 20.2099L15.1095 20.21C15.5995 20.66 16.0895 21.11 16.5895 21.55Z" stroke="white" stroke-width="2"/>
</svg>