<svg width="79" height="18" viewBox="0 0 79 18" fill="none" xmlns="http://www.w3.org/2000/svg">
<path d="M16.1 8.54C16.1 10.76 15.66 12.49 14.78 13.73C13.92 14.95 12.7 15.8 11.12 16.28C9.54 16.76 7.68 17 5.54 17H0.89V0.109999H5.54C7.68 0.109999 9.54 0.429999 11.12 1.07C12.7 1.69 13.92 2.62 14.78 3.86C15.66 5.1 16.1 6.66 16.1 8.54ZM3.92 14.48H6.41C7.73 14.48 8.87 14.33 9.83 14.03C10.79 13.71 11.53 13.12 12.05 12.26C12.57 11.4 12.83 10.15 12.83 8.51C12.83 6.57 12.25 5.13 11.09 4.19C9.95 3.23 8.39 2.75 6.41 2.75H3.92V14.48Z" fill="#18ACE8"/>
<path d="M20.2534 17L17.3734 5.18V4.64H20.3734L22.4134 14.45H22.4734L25.1134 4.64H27.7534L30.4834 14.45H30.5434L32.5834 4.64H35.5534V5.18L32.6434 17H28.3834L26.4634 9.95H26.4034L24.5734 17H20.2534ZM42.8427 17.3C41.4227 17.3 40.2627 17 39.3627 16.4C38.4827 15.78 37.8227 15 37.3827 14.06C36.9627 13.1 36.7427 12.09 36.7227 11.03C36.7027 9.79 36.9327 8.69 37.4127 7.73C37.9127 6.75 38.6127 5.99 39.5127 5.45C40.4327 4.89 41.5127 4.61 42.7527 4.61C43.8527 4.61 44.8327 4.85 45.6927 5.33C46.5727 5.81 47.2727 6.49 47.7927 7.37C48.3127 8.23 48.5827 9.25 48.6027 10.43C48.6027 10.47 48.6027 10.58 48.6027 10.76C48.6027 10.94 48.6027 11.09 48.6027 11.21H39.6327C39.6327 12.35 39.9127 13.23 40.4727 13.85C41.0327 14.45 41.8027 14.75 42.7827 14.75C43.5427 14.75 44.1727 14.56 44.6727 14.18C45.1927 13.8 45.5027 13.3 45.6027 12.68H48.5727C48.4327 13.98 47.8727 15.08 46.8927 15.98C45.9127 16.86 44.5627 17.3 42.8427 17.3ZM39.7227 9.83H45.5427C45.5227 9.69 45.4727 9.47 45.3927 9.17C45.3327 8.87 45.2027 8.56 45.0027 8.24C44.8227 7.92 44.5427 7.65 44.1627 7.43C43.7827 7.21 43.2927 7.1 42.6927 7.1C41.8927 7.1 41.2827 7.27 40.8627 7.61C40.4627 7.93 40.1727 8.31 39.9927 8.75C39.8327 9.17 39.7427 9.53 39.7227 9.83ZM51.2701 17V0.109999H54.2701V17H51.2701ZM61.0588 17.3C59.3588 17.3 58.1488 16.72 57.4288 15.56C56.7088 14.4 56.3488 12.88 56.3488 11C56.3488 9.1 56.7088 7.57 57.4288 6.41C58.1688 5.23 59.3788 4.64 61.0588 4.64C62.0188 4.64 62.7788 4.81 63.3388 5.15C63.8988 5.47 64.3188 5.83 64.5988 6.23C64.8788 6.63 65.0488 6.93 65.1088 7.13H65.1688V4.67H68.3188V17H65.6788L65.1688 14.99H65.1088C65.0488 15.17 64.8688 15.45 64.5688 15.83C64.2888 16.19 63.8588 16.53 63.2788 16.85C62.7188 17.15 61.9788 17.3 61.0588 17.3ZM62.3188 14.72C63.4388 14.72 64.1888 14.37 64.5688 13.67C64.9688 12.95 65.1688 12.07 65.1688 11.03C65.1688 9.93 64.9688 9.04 64.5688 8.36C64.1688 7.68 63.4188 7.34 62.3188 7.34C61.5388 7.34 60.9288 7.51 60.4888 7.85C60.0688 8.19 59.7688 8.64 59.5888 9.2C59.4288 9.74 59.3488 10.35 59.3488 11.03C59.3488 11.71 59.4288 12.33 59.5888 12.89C59.7688 13.45 60.0688 13.9 60.4888 14.24C60.9288 14.56 61.5388 14.72 62.3188 14.72ZM70.5725 17V4.67H73.4225L73.6325 8.09C73.7525 7.57 73.9825 7.05 74.3225 6.53C74.6825 5.99 75.1725 5.55 75.7925 5.21C76.4325 4.85 77.2525 4.67 78.2525 4.67H78.7025V8.09H78.2525C76.5325 8.09 75.3325 8.37 74.6525 8.93C73.9725 9.47 73.6325 10.39 73.6325 11.69V17H70.5725Z" fill="white"/>
</svg>
