<svg xmlns="http://www.w3.org/2000/svg" width="200" height="200" viewBox="0 0 200 200" fill="none">
  <path d="M145 110C158.3 110 170.5 105.28 180 97.43V145C180 151.63 177.366 157.989 172.678 162.678C167.989 167.366 161.63 170 155 170H45C38.3696 170 32.0107 167.366 27.3223 162.678C22.6339 157.989 20 151.63 20 145V73.73L97.47 119.31C98.2384 119.762 99.1136 120 100.005 120C100.896 120 101.772 119.762 102.54 119.31L124.84 106.19C131.261 108.716 138.1 110.009 145 110ZM45 40H92.07C88.8942 51.184 89.3468 63.087 93.3628 73.9975C97.3788 84.908 104.751 94.2639 114.42 100.72L100 109.2L20.15 62.23C20.8316 56.1164 23.7432 50.4687 28.3279 46.3674C32.9127 42.2661 38.8485 39.999 45 40ZM145 100C156.935 100 168.381 95.2589 176.82 86.8198C185.259 78.3807 190 66.9347 190 55C190 43.0653 185.259 31.6193 176.82 23.1802C168.381 14.7411 156.935 10 145 10C133.065 10 121.619 14.7411 113.18 23.1802C104.741 31.6193 100 43.0653 100 55C100 66.9347 104.741 78.3807 113.18 86.8198C121.619 95.2589 133.065 100 145 100ZM121.46 58.54C120.995 58.0751 120.626 57.5232 120.375 56.9158C120.123 56.3084 119.994 55.6574 119.994 55C119.994 54.3426 120.123 53.6916 120.375 53.0842C120.626 52.4768 120.995 51.9249 121.46 51.46C122.399 50.5211 123.672 49.9937 125 49.9937C125.657 49.9937 126.308 50.1232 126.916 50.3748C127.523 50.6264 128.075 50.9951 128.54 51.46L140 62.93V35C140 33.6739 140.527 32.4021 141.464 31.4645C142.402 30.5268 143.674 30 145 30C146.326 30 147.598 30.5268 148.536 31.4645C149.473 32.4021 150 33.6739 150 35V62.93L161.46 51.46C162.399 50.5211 163.672 49.9937 165 49.9937C166.328 49.9937 167.601 50.5211 168.54 51.46C169.479 52.3989 170.006 53.6722 170.006 55C170.006 56.3278 169.479 57.6011 168.54 58.54L148.54 78.54C147.608 79.4707 146.347 79.9955 145.03 80H144.97C143.666 79.994 142.417 79.477 141.49 78.56L141.46 78.53L121.46 58.53V58.54Z" fill="#111110"/>
</svg>